<mxfile host="app.diagrams.net" agent="Mozilla/5.0 (Windows NT 10.0; Win64; x64; rv:136.0) Gecko/20100101 Firefox/136.0" version="26.1.3">
  <diagram name="Page-1" id="lW-tmhY_m9JiVLKgdr-E">
    <mxGraphModel dx="1195" dy="660" grid="1" gridSize="10" guides="1" tooltips="1" connect="1" arrows="1" fold="1" page="1" pageScale="1" pageWidth="827" pageHeight="1169" math="0" shadow="0">
      <root>
        <mxCell id="0" />
        <mxCell id="1" parent="0" />
        <mxCell id="DRHzH8BzLrvunNtR7_3k-1" value="" style="ellipse;html=1;shape=startState;fillColor=#000000;strokeColor=#ff0000;" vertex="1" parent="1">
          <mxGeometry x="384" y="70" width="30" height="30" as="geometry" />
        </mxCell>
        <mxCell id="DRHzH8BzLrvunNtR7_3k-2" value="" style="edgeStyle=orthogonalEdgeStyle;html=1;verticalAlign=bottom;endArrow=open;endSize=8;strokeColor=#ff0000;rounded=0;" edge="1" source="DRHzH8BzLrvunNtR7_3k-1" parent="1">
          <mxGeometry relative="1" as="geometry">
            <mxPoint x="399" y="160" as="targetPoint" />
          </mxGeometry>
        </mxCell>
        <mxCell id="DRHzH8BzLrvunNtR7_3k-3" value="&lt;div&gt;Saisir identifiants&lt;/div&gt;" style="rounded=1;whiteSpace=wrap;html=1;arcSize=40;fontColor=#000000;fillColor=#ffffc0;strokeColor=#ff0000;" vertex="1" parent="1">
          <mxGeometry x="339" y="160" width="120" height="40" as="geometry" />
        </mxCell>
        <mxCell id="DRHzH8BzLrvunNtR7_3k-4" value="" style="edgeStyle=orthogonalEdgeStyle;html=1;verticalAlign=bottom;endArrow=open;endSize=8;strokeColor=#ff0000;rounded=0;" edge="1" source="DRHzH8BzLrvunNtR7_3k-3" parent="1">
          <mxGeometry relative="1" as="geometry">
            <mxPoint x="399" y="260" as="targetPoint" />
          </mxGeometry>
        </mxCell>
        <mxCell id="DRHzH8BzLrvunNtR7_3k-7" style="edgeStyle=orthogonalEdgeStyle;rounded=0;orthogonalLoop=1;jettySize=auto;html=1;" edge="1" parent="1">
          <mxGeometry relative="1" as="geometry">
            <mxPoint x="461" y="180" as="targetPoint" />
            <mxPoint x="471" y="290" as="sourcePoint" />
            <Array as="points">
              <mxPoint x="533" y="290" />
              <mxPoint x="533" y="180" />
            </Array>
          </mxGeometry>
        </mxCell>
        <mxCell id="DRHzH8BzLrvunNtR7_3k-8" value="&lt;div&gt;Non&lt;/div&gt;" style="edgeLabel;html=1;align=center;verticalAlign=middle;resizable=0;points=[];" vertex="1" connectable="0" parent="DRHzH8BzLrvunNtR7_3k-7">
          <mxGeometry x="-0.8033" y="-2" relative="1" as="geometry">
            <mxPoint x="8" y="-4" as="offset" />
          </mxGeometry>
        </mxCell>
        <mxCell id="DRHzH8BzLrvunNtR7_3k-5" value="Identifiants corrects ?" style="rounded=1;whiteSpace=wrap;html=1;arcSize=40;fontColor=#000000;fillColor=#ffffc0;strokeColor=#ff0000;shape=rhombus;perimeter=rhombusPerimeter;" vertex="1" parent="1">
          <mxGeometry x="313.5" y="260" width="171" height="60" as="geometry" />
        </mxCell>
        <mxCell id="DRHzH8BzLrvunNtR7_3k-9" value="&lt;div&gt;Consulter spectacles&lt;/div&gt;" style="rounded=1;whiteSpace=wrap;html=1;arcSize=40;fontColor=#000000;fillColor=#ffffc0;strokeColor=#ff0000;" vertex="1" parent="1">
          <mxGeometry x="339" y="390" width="120" height="40" as="geometry" />
        </mxCell>
        <mxCell id="DRHzH8BzLrvunNtR7_3k-10" value="" style="edgeStyle=orthogonalEdgeStyle;html=1;verticalAlign=bottom;endArrow=open;endSize=8;strokeColor=#ff0000;rounded=0;" edge="1" source="DRHzH8BzLrvunNtR7_3k-9" parent="1">
          <mxGeometry relative="1" as="geometry">
            <mxPoint x="399" y="490" as="targetPoint" />
          </mxGeometry>
        </mxCell>
        <mxCell id="DRHzH8BzLrvunNtR7_3k-12" value="" style="edgeStyle=orthogonalEdgeStyle;html=1;verticalAlign=bottom;endArrow=open;endSize=8;strokeColor=#ff0000;rounded=0;" edge="1" parent="1">
          <mxGeometry relative="1" as="geometry">
            <mxPoint x="398.5" y="390" as="targetPoint" />
            <mxPoint x="398.5" y="320" as="sourcePoint" />
          </mxGeometry>
        </mxCell>
        <mxCell id="DRHzH8BzLrvunNtR7_3k-14" value="&lt;div&gt;Oui&lt;/div&gt;" style="edgeLabel;html=1;align=center;verticalAlign=middle;resizable=0;points=[];" vertex="1" connectable="0" parent="DRHzH8BzLrvunNtR7_3k-12">
          <mxGeometry x="-0.1429" relative="1" as="geometry">
            <mxPoint x="-1" as="offset" />
          </mxGeometry>
        </mxCell>
        <mxCell id="DRHzH8BzLrvunNtR7_3k-15" value="Sélectionner spectacle" style="rounded=1;whiteSpace=wrap;html=1;arcSize=40;fontColor=#000000;fillColor=#ffffc0;strokeColor=#ff0000;" vertex="1" parent="1">
          <mxGeometry x="339" y="490" width="120" height="40" as="geometry" />
        </mxCell>
        <mxCell id="DRHzH8BzLrvunNtR7_3k-16" value="" style="edgeStyle=orthogonalEdgeStyle;html=1;verticalAlign=bottom;endArrow=open;endSize=8;strokeColor=#ff0000;rounded=0;" edge="1" source="DRHzH8BzLrvunNtR7_3k-15" parent="1">
          <mxGeometry relative="1" as="geometry">
            <mxPoint x="399" y="590" as="targetPoint" />
          </mxGeometry>
        </mxCell>
        <mxCell id="DRHzH8BzLrvunNtR7_3k-17" value="&lt;div&gt;Signaler sa présence&lt;/div&gt;" style="rounded=1;whiteSpace=wrap;html=1;arcSize=40;fontColor=#000000;fillColor=#ffffc0;strokeColor=#ff0000;" vertex="1" parent="1">
          <mxGeometry x="339" y="590" width="120" height="40" as="geometry" />
        </mxCell>
        <mxCell id="DRHzH8BzLrvunNtR7_3k-18" value="" style="edgeStyle=orthogonalEdgeStyle;html=1;verticalAlign=bottom;endArrow=open;endSize=8;strokeColor=#ff0000;rounded=0;" edge="1" source="DRHzH8BzLrvunNtR7_3k-17" parent="1">
          <mxGeometry relative="1" as="geometry">
            <mxPoint x="399" y="690" as="targetPoint" />
          </mxGeometry>
        </mxCell>
        <mxCell id="DRHzH8BzLrvunNtR7_3k-19" value="Membre présent ?" style="rhombus;whiteSpace=wrap;html=1;fontColor=#000000;fillColor=#ffffc0;strokeColor=#ff0000;" vertex="1" parent="1">
          <mxGeometry x="304" y="690" width="190" height="90" as="geometry" />
        </mxCell>
        <mxCell id="DRHzH8BzLrvunNtR7_3k-20" value="no" style="edgeStyle=orthogonalEdgeStyle;html=1;align=left;verticalAlign=bottom;endArrow=open;endSize=8;strokeColor=#ff0000;rounded=0;fontColor=none;noLabel=1;exitX=1;exitY=0.5;exitDx=0;exitDy=0;" edge="1" source="DRHzH8BzLrvunNtR7_3k-19" parent="1">
          <mxGeometry x="-0.6312" relative="1" as="geometry">
            <mxPoint x="610" y="735" as="targetPoint" />
            <mxPoint x="520" y="740" as="sourcePoint" />
            <Array as="points" />
            <mxPoint as="offset" />
          </mxGeometry>
        </mxCell>
        <mxCell id="DRHzH8BzLrvunNtR7_3k-23" value="Non" style="edgeLabel;html=1;align=center;verticalAlign=middle;resizable=0;points=[];" vertex="1" connectable="0" parent="DRHzH8BzLrvunNtR7_3k-20">
          <mxGeometry x="-0.3759" relative="1" as="geometry">
            <mxPoint x="22" y="-1" as="offset" />
          </mxGeometry>
        </mxCell>
        <mxCell id="DRHzH8BzLrvunNtR7_3k-21" value="&lt;div&gt;Oui&lt;/div&gt;&lt;div&gt;&lt;br&gt;&lt;/div&gt;" style="edgeStyle=orthogonalEdgeStyle;html=1;align=left;verticalAlign=top;endArrow=open;endSize=8;strokeColor=#ff0000;rounded=0;fontColor=#FFFFFF;" edge="1" parent="1">
          <mxGeometry x="-1" y="383" relative="1" as="geometry">
            <mxPoint x="398" y="840" as="targetPoint" />
            <mxPoint x="398" y="780" as="sourcePoint" />
            <mxPoint x="-1" y="-20" as="offset" />
          </mxGeometry>
        </mxCell>
        <mxCell id="DRHzH8BzLrvunNtR7_3k-22" value="Oui" style="edgeLabel;html=1;align=center;verticalAlign=middle;resizable=0;points=[];" vertex="1" connectable="0" parent="DRHzH8BzLrvunNtR7_3k-21">
          <mxGeometry x="-0.4667" y="-4" relative="1" as="geometry">
            <mxPoint x="4" y="4" as="offset" />
          </mxGeometry>
        </mxCell>
        <mxCell id="DRHzH8BzLrvunNtR7_3k-24" value="Mettre la valeur &quot;Oui&quot; au champ &quot;présence&quot;" style="rounded=1;whiteSpace=wrap;html=1;arcSize=40;fontColor=#000000;fillColor=#ffffc0;strokeColor=#ff0000;" vertex="1" parent="1">
          <mxGeometry x="334" y="840" width="131" height="50" as="geometry" />
        </mxCell>
        <mxCell id="DRHzH8BzLrvunNtR7_3k-25" value="" style="edgeStyle=orthogonalEdgeStyle;html=1;verticalAlign=bottom;endArrow=open;endSize=8;strokeColor=#ff0000;rounded=0;" edge="1" source="DRHzH8BzLrvunNtR7_3k-24" parent="1">
          <mxGeometry relative="1" as="geometry">
            <mxPoint x="399" y="940" as="targetPoint" />
          </mxGeometry>
        </mxCell>
        <mxCell id="DRHzH8BzLrvunNtR7_3k-30" style="edgeStyle=orthogonalEdgeStyle;rounded=0;orthogonalLoop=1;jettySize=auto;html=1;exitX=1;exitY=0.5;exitDx=0;exitDy=0;entryX=0;entryY=0.5;entryDx=0;entryDy=0;" edge="1" parent="1" source="DRHzH8BzLrvunNtR7_3k-26" target="DRHzH8BzLrvunNtR7_3k-29">
          <mxGeometry relative="1" as="geometry" />
        </mxCell>
        <mxCell id="DRHzH8BzLrvunNtR7_3k-26" value="Mettre la valeur &quot;Non&quot; au champ &quot;présence&quot;" style="rounded=1;whiteSpace=wrap;html=1;arcSize=40;fontColor=#000000;fillColor=#ffffc0;strokeColor=#ff0000;" vertex="1" parent="1">
          <mxGeometry x="610" y="710" width="131" height="50" as="geometry" />
        </mxCell>
        <mxCell id="DRHzH8BzLrvunNtR7_3k-29" value="" style="ellipse;html=1;shape=endState;fillColor=#000000;strokeColor=#ff0000;" vertex="1" parent="1">
          <mxGeometry x="780" y="720" width="30" height="30" as="geometry" />
        </mxCell>
        <mxCell id="DRHzH8BzLrvunNtR7_3k-31" value="&lt;div&gt;Choisir rôle de préférence ( facultatif)&lt;/div&gt;" style="rounded=1;whiteSpace=wrap;html=1;arcSize=40;fontColor=#000000;fillColor=#ffffc0;strokeColor=#ff0000;" vertex="1" parent="1">
          <mxGeometry x="333.5" y="950" width="131" height="50" as="geometry" />
        </mxCell>
        <mxCell id="DRHzH8BzLrvunNtR7_3k-32" value="" style="edgeStyle=orthogonalEdgeStyle;html=1;verticalAlign=bottom;endArrow=open;endSize=8;strokeColor=#ff0000;rounded=0;" edge="1" source="DRHzH8BzLrvunNtR7_3k-31" parent="1">
          <mxGeometry relative="1" as="geometry">
            <mxPoint x="399" y="1050" as="targetPoint" />
          </mxGeometry>
        </mxCell>
        <mxCell id="DRHzH8BzLrvunNtR7_3k-33" value="&lt;div&gt;Ajouter commentaire &lt;br&gt;&lt;/div&gt;&lt;div&gt;( facultatif )&lt;/div&gt;" style="rounded=1;whiteSpace=wrap;html=1;arcSize=40;fontColor=#000000;fillColor=#ffffc0;strokeColor=#ff0000;" vertex="1" parent="1">
          <mxGeometry x="339" y="1050" width="120" height="40" as="geometry" />
        </mxCell>
        <mxCell id="DRHzH8BzLrvunNtR7_3k-34" value="" style="edgeStyle=orthogonalEdgeStyle;html=1;verticalAlign=bottom;endArrow=open;endSize=8;strokeColor=#ff0000;rounded=0;" edge="1" source="DRHzH8BzLrvunNtR7_3k-33" parent="1">
          <mxGeometry relative="1" as="geometry">
            <mxPoint x="399" y="1150" as="targetPoint" />
          </mxGeometry>
        </mxCell>
        <mxCell id="DRHzH8BzLrvunNtR7_3k-35" value="" style="ellipse;html=1;shape=endState;fillColor=#000000;strokeColor=#ff0000;" vertex="1" parent="1">
          <mxGeometry x="384.5" y="1150" width="30" height="30" as="geometry" />
        </mxCell>
      </root>
    </mxGraphModel>
  </diagram>
</mxfile>
